<svg version="1.1" xmlns="http://www.w3.org/2000/svg" xmlns:xlink="http://www.w3.org/1999/xlink" width="1397.92431640625" height="1061"><defs/><g><g transform="translate(-73,-230) scale(1,1)"><rect fill="#C0C0C0" stroke="none" x="111" y="815" width="231.904296875" height="145" opacity="0.2"/></g><g transform="translate(-73,-230) scale(1,1)"><rect fill="#ffffff" stroke="none" x="104" y="808" width="231.904296875" height="145"/></g><g transform="translate(-73,-230) scale(1,1)"><path fill="none" stroke="#000000" d="M 104 808 L 335.904296875 808 L 335.904296875 953 L 104 953 L 104 808 Z Z" stroke-miterlimit="10"/></g><g transform="translate(-73,-230) scale(1,1)"><path fill="none" stroke="#000000" d="M 104 833 L 335.904296875 833" stroke-miterlimit="10"/></g><g transform="translate(-73,-230) scale(1,1)"><path fill="none" stroke="#000000" d="M 104 856 L 335.904296875 856" stroke-miterlimit="10"/></g><g transform="translate(-73,-230) scale(1,1)"><g><path fill="none" stroke="none"/><text fill="#000000" stroke="none" font-family="Arial" font-size="13px" font-style="normal" font-weight="bold" text-decoration="none" x="186.712646484375" y="827.5">Locomotive</text></g></g><g transform="translate(-73,-230) scale(1,1)"><g><path fill="none" stroke="none"/><text fill="#000000" stroke="none" font-family="Arial" font-size="13px" font-style="normal" font-weight="normal" text-decoration="none" x="109" y="850.5">+priority: int</text></g></g><g transform="translate(-73,-230) scale(1,1)"><g><path fill="none" stroke="none"/><text fill="#000000" stroke="none" font-family="Arial" font-size="13px" font-style="normal" font-weight="normal" text-decoration="none" x="109" y="873.5">+Locomotive(numero: int, vitesse: int)</text></g></g><g transform="translate(-73,-230) scale(1,1)"><g><path fill="none" stroke="none"/><text fill="#000000" stroke="none" font-family="Arial" font-size="13px" font-style="normal" font-weight="normal" text-decoration="none" x="109" y="888.5">+demarrer()</text></g></g><g transform="translate(-73,-230) scale(1,1)"><g><path fill="none" stroke="none"/><text fill="#000000" stroke="none" font-family="Arial" font-size="13px" font-style="normal" font-weight="normal" text-decoration="none" x="109" y="903.5">+arreter()</text></g></g><g transform="translate(-73,-230) scale(1,1)"><g><path fill="none" stroke="none"/><text fill="#000000" stroke="none" font-family="Arial" font-size="13px" font-style="normal" font-weight="normal" text-decoration="none" x="109" y="918.5">+inverserSens()</text></g></g><g transform="translate(-73,-230) scale(1,1)"><rect fill="#C0C0C0" stroke="none" x="90" y="455" width="836.96923828125" height="250" opacity="0.2"/></g><g transform="translate(-73,-230) scale(1,1)"><rect fill="#ffffff" stroke="none" x="83" y="448" width="836.96923828125" height="250"/></g><g transform="translate(-73,-230) scale(1,1)"><path fill="none" stroke="#000000" d="M 83 448 L 919.96923828125 448 L 919.96923828125 698 L 83 698 L 83 448 Z Z" stroke-miterlimit="10"/></g><g transform="translate(-73,-230) scale(1,1)"><path fill="none" stroke="#000000" d="M 83 473 L 919.96923828125 473" stroke-miterlimit="10"/></g><g transform="translate(-73,-230) scale(1,1)"><path fill="none" stroke="#000000" d="M 83 616 L 919.96923828125 616" stroke-miterlimit="10"/></g><g transform="translate(-73,-230) scale(1,1)"><g><path fill="none" stroke="none"/><text fill="#000000" stroke="none" font-family="Arial" font-size="13px" font-style="normal" font-weight="bold" text-decoration="none" x="442.591064453125" y="467.5">LocomotiveBehavior</text></g></g><g transform="translate(-73,-230) scale(1,1)"><g><path fill="none" stroke="none"/><text fill="#000000" stroke="none" font-family="Arial" font-size="13px" font-style="normal" font-weight="normal" text-decoration="none" x="88" y="490.5">#track: Track</text></g></g><g transform="translate(-73,-230) scale(1,1)"><g><path fill="none" stroke="none"/><text fill="#000000" stroke="none" font-family="Arial" font-size="13px" font-style="normal" font-weight="normal" text-decoration="none" x="88" y="505.5">#currentLapCount: int</text></g></g><g transform="translate(-73,-230) scale(1,1)"><g><path fill="none" stroke="none"/><text fill="#000000" stroke="none" font-family="Arial" font-size="13px" font-style="normal" font-weight="normal" text-decoration="none" x="88" y="520.5">#MAX_LAPS: const int</text></g></g><g transform="translate(-73,-230) scale(1,1)"><g><path fill="none" stroke="none"/><text fill="#000000" stroke="none" font-family="Arial" font-size="13px" font-style="normal" font-weight="normal" text-decoration="none" x="88" y="535.5">#isClockwise: bool</text></g></g><g transform="translate(-73,-230) scale(1,1)"><g><path fill="none" stroke="none"/><text fill="#000000" stroke="none" font-family="Arial" font-size="13px" font-style="normal" font-weight="normal" text-decoration="none" x="88" y="550.5">#wokeUp: bool</text></g></g><g transform="translate(-73,-230) scale(1,1)"><g><path fill="none" stroke="none"/><text fill="#000000" stroke="none" font-family="Arial" font-size="13px" font-style="normal" font-weight="normal" text-decoration="none" x="88" y="565.5">#requestSent: bool</text></g></g><g transform="translate(-73,-230) scale(1,1)"><g><path fill="none" stroke="none"/><text fill="#000000" stroke="none" font-family="Arial" font-size="13px" font-style="normal" font-weight="normal" text-decoration="none" x="88" y="580.5">#id: LocoId</text></g></g><g transform="translate(-73,-230) scale(1,1)"><g><path fill="none" stroke="none"/><text fill="#000000" stroke="none" font-family="Arial" font-size="13px" font-style="normal" font-weight="normal" text-decoration="none" x="88" y="595.5">#loco: Locomotive</text></g></g><g transform="translate(-73,-230) scale(1,1)"><g><path fill="none" stroke="none"/><text fill="#000000" stroke="none" font-family="Arial" font-size="13px" font-style="normal" font-weight="normal" text-decoration="none" x="88" y="610.5">#sharedSection: shared_ptr&lt;SharedSectionInterface&gt;</text></g></g><g transform="translate(-73,-230) scale(1,1)"><g><path fill="none" stroke="none"/><text fill="#000000" stroke="none" font-family="Arial" font-size="13px" font-style="normal" font-weight="normal" text-decoration="none" x="88" y="633.5">+LocomotiveBehavior(loco: Locomotive&amp;, sharedSection: std::shared_ptr&lt;SharedSectionInterface&gt;, track: Track, nbLaps: int, isClockwise: bool)</text></g></g><g transform="translate(-73,-230) scale(1,1)"><g><path fill="none" stroke="none"/><text fill="#000000" stroke="none" font-family="Arial" font-size="13px" font-style="normal" font-weight="normal" text-decoration="none" x="88" y="648.5">#run()</text></g></g><g transform="translate(-73,-230) scale(1,1)"><g><path fill="none" stroke="none"/><text fill="#000000" stroke="none" font-family="Arial" font-size="13px" font-style="normal" font-weight="normal" text-decoration="none" x="88" y="663.5">#printStartMessage()</text></g></g><g transform="translate(-73,-230) scale(1,1)"><g><path fill="none" stroke="none"/><text fill="#000000" stroke="none" font-family="Arial" font-size="13px" font-style="normal" font-weight="normal" text-decoration="none" x="88" y="678.5">#printCompletionMessage()</text></g></g><g transform="translate(-73,-230) scale(1,1)"><g><path fill="none" stroke="none"/><text fill="#000000" stroke="none" font-family="Arial" font-size="13px" font-style="normal" font-weight="normal" text-decoration="none" x="88" y="693.5">#manageDangers(currentTurn: Turn*)</text></g></g><g transform="translate(-73,-230) scale(1,1)"><rect fill="#C0C0C0" stroke="none" x="396" y="255" width="225.09326171875" height="102" opacity="0.2"/></g><g transform="translate(-73,-230) scale(1,1)"><rect fill="#ffffff" stroke="none" x="389" y="248" width="225.09326171875" height="102"/></g><g transform="translate(-73,-230) scale(1,1)"><path fill="none" stroke="#000000" d="M 389 248 L 614.09326171875 248 L 614.09326171875 350 L 389 350 L 389 248 Z Z" stroke-miterlimit="10"/></g><g transform="translate(-73,-230) scale(1,1)"><path fill="none" stroke="#000000" d="M 389 273 L 614.09326171875 273" stroke-miterlimit="10"/></g><g transform="translate(-73,-230) scale(1,1)"><path fill="none" stroke="#000000" d="M 389 296 L 614.09326171875 296" stroke-miterlimit="10"/></g><g transform="translate(-73,-230) scale(1,1)"><g><path fill="none" stroke="none"/><text fill="#000000" stroke="none" font-family="Arial" font-size="13px" font-style="normal" font-weight="bold" text-decoration="none" x="467.9326171875" y="267.5">Launchable</text></g></g><g transform="translate(-73,-230) scale(1,1)"><g><path fill="none" stroke="none"/><text fill="#000000" stroke="none" font-family="Arial" font-size="13px" font-style="normal" font-weight="normal" text-decoration="none" x="394" y="290.5">#thread: std::unique_ptr&lt;PcoThread&gt;</text></g></g><g transform="translate(-73,-230) scale(1,1)"><g><path fill="none" stroke="none"/><text fill="#000000" stroke="none" font-family="Arial" font-size="13px" font-style="normal" font-weight="normal" text-decoration="none" x="394" y="313.5">+startThread()</text></g></g><g transform="translate(-73,-230) scale(1,1)"><g><path fill="none" stroke="none"/><text fill="#000000" stroke="none" font-family="Arial" font-size="13px" font-style="normal" font-weight="normal" text-decoration="none" x="394" y="328.5">+join()</text></g></g><g transform="translate(-73,-230) scale(1,1)"><g><path fill="none" stroke="none"/><text fill="#000000" stroke="none" font-family="Arial" font-size="13px" font-style="italic" font-weight="normal" text-decoration="none" x="394" y="343.5">#run()</text></g></g><g transform="translate(-73,-230) scale(1,1)"><path fill="none" stroke="#000000" d="M 501 447 L 501 351" stroke-miterlimit="10"/></g><g transform="translate(-73,-230) scale(1,1)"><path fill="#FFFFFF" stroke="none" d="M 509.419035512032 371.3253497152483 L 501 351 L 492.580964487968 371.3253497152483"/></g><g transform="translate(-73,-230) scale(1,1)"><path fill="none" stroke="#000000" d="M 509.419035512032 371.3253497152483 L 501 351 L 492.580964487968 371.3253497152483 L 509.419035512032 371.3253497152483" stroke-miterlimit="10"/></g><g transform="translate(-73,-230) scale(1,1)"><path fill="none" stroke="#000000" d="M 385 699 L 286 807" stroke-miterlimit="10"/></g><g transform="translate(-73,-230) scale(1,1)"><path fill="none" stroke="#000000" d="M 289.76410625081496 796.6640673312673 L 286 807 L 295.97023313500637 802.3530169751094" stroke-miterlimit="10"/></g><g transform="translate(-73,-230) scale(1,1)"><g><path fill="none" stroke="none"/><text fill="#000000" stroke="none" font-family="Arial" font-size="13px" font-style="normal" font-weight="normal" text-decoration="none" x="350.5" y="712.5">0..1</text></g></g><g transform="translate(-73,-230) scale(1,1)"><g><path fill="none" stroke="none"/><text fill="#000000" stroke="none" font-family="Arial" font-size="13px" font-style="normal" font-weight="normal" text-decoration="none" x="336.680908203125" y="784.5">#represent behavior</text></g></g><g transform="translate(-73,-230) scale(1,1)"><g><path fill="none" stroke="none"/><text fill="#000000" stroke="none" font-family="Arial" font-size="13px" font-style="normal" font-weight="normal" text-decoration="none" x="287.5" y="788.5">1</text></g></g><g transform="translate(-73,-230) scale(1,1)"><rect fill="#C0C0C0" stroke="none" x="623" y="871" width="188.21533203125" height="61" opacity="0.2"/></g><g transform="translate(-73,-230) scale(1,1)"><rect fill="#ffffff" stroke="none" x="616" y="864" width="188.21533203125" height="61"/></g><g transform="translate(-73,-230) scale(1,1)"><path fill="none" stroke="#000000" d="M 616 864 L 804.21533203125 864 L 804.21533203125 925 L 616 925 L 616 864 Z Z" stroke-miterlimit="10"/></g><g transform="translate(-73,-230) scale(1,1)"><g><path fill="none" stroke="none"/><text fill="#000000" stroke="none" font-family="Arial" font-size="13px" font-style="normal" font-weight="normal" text-decoration="none" x="677.947265625" y="881.5">«interface»</text></g></g><g transform="translate(-73,-230) scale(1,1)"><g><path fill="none" stroke="none"/><text fill="#000000" stroke="none" font-family="Arial" font-size="13px" font-style="normal" font-weight="bold" text-decoration="none" x="642.175048828125" y="896.5">SharedSectionInterface</text></g></g><g transform="translate(-73,-230) scale(1,1)"><rect fill="#C0C0C0" stroke="none" x="107" y="1111" width="802.53955078125" height="177" opacity="0.2"/></g><g transform="translate(-73,-230) scale(1,1)"><rect fill="#ffffff" stroke="none" x="100" y="1104" width="802.53955078125" height="177"/></g><g transform="translate(-73,-230) scale(1,1)"><path fill="none" stroke="#000000" d="M 100 1104 L 902.53955078125 1104 L 902.53955078125 1281 L 100 1281 L 100 1104 Z Z" stroke-miterlimit="10"/></g><g transform="translate(-73,-230) scale(1,1)"><path fill="none" stroke="#000000" d="M 100 1129 L 902.53955078125 1129" stroke-miterlimit="10"/></g><g transform="translate(-73,-230) scale(1,1)"><path fill="none" stroke="#000000" d="M 100 1214 L 902.53955078125 1214" stroke-miterlimit="10"/></g><g transform="translate(-73,-230) scale(1,1)"><g><path fill="none" stroke="none"/><text fill="#000000" stroke="none" font-family="Arial" font-size="13px" font-style="normal" font-weight="bold" text-decoration="none" x="458.62939453125" y="1123.5">SharedSection</text></g></g><g transform="translate(-73,-230) scale(1,1)"><g><path fill="none" stroke="none"/><text fill="#000000" stroke="none" font-family="Arial" font-size="13px" font-style="normal" font-weight="normal" text-decoration="none" x="105" y="1148.5">-blocked: bool</text></g></g><g transform="translate(-73,-230) scale(1,1)"><g><path fill="none" stroke="none"/><text fill="#000000" stroke="none" font-family="Arial" font-size="13px" font-style="normal" font-weight="normal" text-decoration="none" x="105" y="1163.5">-isAvailable: atomic&lt;bool&gt;</text></g></g><g transform="translate(-73,-230) scale(1,1)"><g><path fill="none" stroke="none"/><text fill="#000000" stroke="none" font-family="Arial" font-size="13px" font-style="normal" font-weight="normal" text-decoration="none" x="105" y="1178.5">-s_synchro: PcoSemaphore</text></g></g><g transform="translate(-73,-230) scale(1,1)"><g><path fill="none" stroke="none"/><text fill="#000000" stroke="none" font-family="Arial" font-size="13px" font-style="normal" font-weight="normal" text-decoration="none" x="105" y="1193.5">-m_available: PcoMutex</text></g></g><g transform="translate(-73,-230) scale(1,1)"><g><path fill="none" stroke="none"/><text fill="#000000" stroke="none" font-family="Arial" font-size="13px" font-style="normal" font-weight="normal" text-decoration="none" x="105" y="1208.5">-m_blocked: PcoMutex</text></g></g><g transform="translate(-73,-230) scale(1,1)"><g><path fill="none" stroke="none"/><text fill="#000000" stroke="none" font-family="Arial" font-size="13px" font-style="normal" font-weight="normal" text-decoration="none" x="105" y="1231.5">+getAccess(loco: Locomotive&amp;, locoId: LocoId)</text></g></g><g transform="translate(-73,-230) scale(1,1)"><g><path fill="none" stroke="none"/><text fill="#000000" stroke="none" font-family="Arial" font-size="13px" font-style="normal" font-weight="normal" text-decoration="none" x="105" y="1246.5">+leave(loco: Locomotive&amp;, locoId: LocoId)</text></g></g><g transform="translate(-73,-230) scale(1,1)"><g><path fill="none" stroke="none"/><text fill="#000000" stroke="none" font-family="Arial" font-size="13px" font-style="normal" font-weight="normal" text-decoration="none" x="105" y="1261.5">+request(loco: Locomotive&amp;, locoId: LocoId, entryPoint: EntryPoint)</text></g></g><g transform="translate(-73,-230) scale(1,1)"><g><path fill="none" stroke="none"/><text fill="#000000" stroke="none" font-family="Arial" font-size="13px" font-style="normal" font-weight="normal" text-decoration="none" x="105" y="1276.5">+SharedSection(requests: QList&lt;Request&gt;, isAvailable: bool, s_synchro: PcoSemaphore, m_available: PcoMutex, m_blocked: PcoMutex)</text></g></g><g transform="translate(-73,-230) scale(1,1)"><path fill="none" stroke="#000000" d="M 563 1103 L 688 926" stroke-miterlimit="10" stroke-dasharray="3"/></g><g transform="translate(-73,-230) scale(1,1)"><path fill="#FFFFFF" stroke="none" d="M 683.1520344752581 947.4591991991992 L 688 926 L 669.3980254299097 937.7459159750831"/></g><g transform="translate(-73,-230) scale(1,1)"><path fill="none" stroke="#000000" d="M 683.1520344752581 947.4591991991992 L 688 926 L 669.3980254299097 937.7459159750831 L 683.1520344752581 947.4591991991992" stroke-miterlimit="10"/></g><g transform="translate(-73,-230) scale(1,1)"><path fill="none" stroke="#000000" d="M 501 699 L 501 1103" stroke-miterlimit="10"/></g><g transform="translate(-73,-230) scale(1,1)"><path fill="none" stroke="#000000" d="M 496.790482243984 1092.837325142376 L 501 1103 L 505.209517756016 1092.837325142376" stroke-miterlimit="10"/></g><g transform="translate(-73,-230) scale(1,1)"><g><path fill="none" stroke="none"/><text fill="#000000" stroke="none" font-family="Arial" font-size="13px" font-style="normal" font-weight="normal" text-decoration="none" x="510.680908203125" y="908.5">#accesses</text></g></g><g transform="translate(-73,-230) scale(1,1)"><rect fill="#C0C0C0" stroke="none" x="1006" y="887" width="461.92431640625" height="222" opacity="0.2"/></g><g transform="translate(-73,-230) scale(1,1)"><rect fill="#ffffff" stroke="none" x="999" y="880" width="461.92431640625" height="222"/></g><g transform="translate(-73,-230) scale(1,1)"><path fill="none" stroke="#000000" d="M 999 880 L 1460.92431640625 880 L 1460.92431640625 1102 L 999 1102 L 999 880 Z Z" stroke-miterlimit="10"/></g><g transform="translate(-73,-230) scale(1,1)"><path fill="none" stroke="#000000" d="M 999 905 L 1460.92431640625 905" stroke-miterlimit="10"/></g><g transform="translate(-73,-230) scale(1,1)"><path fill="none" stroke="#000000" d="M 999 945 L 1460.92431640625 945" stroke-miterlimit="10"/></g><g transform="translate(-73,-230) scale(1,1)"><g><path fill="none" stroke="none"/><text fill="#000000" stroke="none" font-family="Arial" font-size="13px" font-style="normal" font-weight="bold" text-decoration="none" x="1213.953369140625" y="899.5">Track</text></g></g><g transform="translate(-73,-230) scale(1,1)"><g><path fill="none" stroke="none"/><text fill="#000000" stroke="none" font-family="Arial" font-size="13px" font-style="normal" font-weight="normal" text-decoration="none" x="1004" y="924.5">-currentTurn: QListIterator&lt;Turn*&gt;</text></g></g><g transform="translate(-73,-230) scale(1,1)"><g><path fill="none" stroke="none"/><text fill="#000000" stroke="none" font-family="Arial" font-size="13px" font-style="normal" font-weight="normal" text-decoration="none" x="1004" y="939.5">-isInit: bool</text></g></g><g transform="translate(-73,-230) scale(1,1)"><g><path fill="none" stroke="none"/><text fill="#000000" stroke="none" font-family="Arial" font-size="13px" font-style="normal" font-weight="normal" text-decoration="none" x="1004" y="962.5">+Track()</text></g></g><g transform="translate(-73,-230) scale(1,1)"><g><path fill="none" stroke="none"/><text fill="#000000" stroke="none" font-family="Arial" font-size="13px" font-style="normal" font-weight="normal" text-decoration="none" x="1004" y="977.5">+addTurn(contact1: int, contact2: int, switches: QList&lt;Switch&gt;, safety: Danger)</text></g></g><g transform="translate(-73,-230) scale(1,1)"><g><path fill="none" stroke="none"/><text fill="#000000" stroke="none" font-family="Arial" font-size="13px" font-style="normal" font-weight="normal" text-decoration="none" x="1004" y="992.5">+nextTurn(isCLockwise: bool): Turn*</text></g></g><g transform="translate(-73,-230) scale(1,1)"><g><path fill="none" stroke="none"/><text fill="#000000" stroke="none" font-family="Arial" font-size="13px" font-style="normal" font-weight="normal" text-decoration="none" x="1004" y="1007.5">+newLap(isClockwise: bool)</text></g></g><g transform="translate(-73,-230) scale(1,1)"><g><path fill="none" stroke="none"/><text fill="#000000" stroke="none" font-family="Arial" font-size="13px" font-style="normal" font-weight="normal" text-decoration="none" x="1004" y="1022.5">+peekNextTurn(isCLockwise: bool): Turn*</text></g></g><g transform="translate(-73,-230) scale(1,1)"><g><path fill="none" stroke="none"/><text fill="#000000" stroke="none" font-family="Arial" font-size="13px" font-style="normal" font-weight="normal" text-decoration="none" x="1004" y="1037.5">+peekNextTurnLoopBack(isCLockwise: bool): Turn*</text></g></g><g transform="translate(-73,-230) scale(1,1)"><g><path fill="none" stroke="none"/><text fill="#000000" stroke="none" font-family="Arial" font-size="13px" font-style="normal" font-weight="normal" text-decoration="none" x="1004" y="1052.5">+newLap(isClockwise: bool)</text></g></g><g transform="translate(-73,-230) scale(1,1)"><g><path fill="none" stroke="none"/><text fill="#000000" stroke="none" font-family="Arial" font-size="13px" font-style="normal" font-weight="normal" text-decoration="none" x="1004" y="1067.5">+initTrack(isClockwise: bool)</text></g></g><g transform="translate(-73,-230) scale(1,1)"><g><path fill="none" stroke="none"/><text fill="#000000" stroke="none" font-family="Arial" font-size="13px" font-style="normal" font-weight="normal" text-decoration="none" x="1004" y="1082.5">+getTurnNo(turn: Turn*): int</text></g></g><g transform="translate(-73,-230) scale(1,1)"><g><path fill="none" stroke="none"/><text fill="#000000" stroke="none" font-family="Arial" font-size="13px" font-style="normal" font-weight="normal" text-decoration="none" x="1004" y="1097.5">+getNbTurns(): int</text></g></g><g transform="translate(-73,-230) scale(1,1)"><rect fill="#C0C0C0" stroke="none" x="1101" y="535" width="270.193359375" height="145" opacity="0.2"/></g><g transform="translate(-73,-230) scale(1,1)"><rect fill="#ffffff" stroke="none" x="1094" y="528" width="270.193359375" height="145"/></g><g transform="translate(-73,-230) scale(1,1)"><path fill="none" stroke="#000000" d="M 1094 528 L 1364.193359375 528 L 1364.193359375 673 L 1094 673 L 1094 528 Z Z" stroke-miterlimit="10"/></g><g transform="translate(-73,-230) scale(1,1)"><path fill="none" stroke="#000000" d="M 1094 553 L 1364.193359375 553" stroke-miterlimit="10"/></g><g transform="translate(-73,-230) scale(1,1)"><path fill="none" stroke="#000000" d="M 1094 591 L 1364.193359375 591" stroke-miterlimit="10"/></g><g transform="translate(-73,-230) scale(1,1)"><g><path fill="none" stroke="none"/><text fill="#000000" stroke="none" font-family="Arial" font-size="13px" font-style="normal" font-weight="bold" text-decoration="none" x="1215.972900390625" y="547.5">Turn</text></g></g><g transform="translate(-73,-230) scale(1,1)"><g><path fill="none" stroke="none"/><text fill="#000000" stroke="none" font-family="Arial" font-size="13px" font-style="normal" font-weight="normal" text-decoration="none" x="1099" y="570.5">-contact1: int</text></g></g><g transform="translate(-73,-230) scale(1,1)"><g><path fill="none" stroke="none"/><text fill="#000000" stroke="none" font-family="Arial" font-size="13px" font-style="normal" font-weight="normal" text-decoration="none" x="1099" y="585.5">-contact2: int</text></g></g><g transform="translate(-73,-230) scale(1,1)"><g><path fill="none" stroke="none"/><text fill="#000000" stroke="none" font-family="Arial" font-size="13px" font-style="normal" font-weight="normal" text-decoration="none" x="1099" y="608.5">+getEntry(isClockwise: bool): int</text></g></g><g transform="translate(-73,-230) scale(1,1)"><g><path fill="none" stroke="none"/><text fill="#000000" stroke="none" font-family="Arial" font-size="13px" font-style="normal" font-weight="normal" text-decoration="none" x="1099" y="623.5">+getExit(isClockwise: bool): int</text></g></g><g transform="translate(-73,-230) scale(1,1)"><g><path fill="none" stroke="none"/><text fill="#000000" stroke="none" font-family="Arial" font-size="13px" font-style="normal" font-weight="normal" text-decoration="none" x="1099" y="638.5">+activate()</text></g></g><g transform="translate(-73,-230) scale(1,1)"><g><path fill="none" stroke="none"/><text fill="#000000" stroke="none" font-family="Arial" font-size="13px" font-style="normal" font-weight="normal" text-decoration="none" x="1099" y="653.5">+getEntryPoint(isClockwise: bool): EntryPoint</text></g></g><g transform="translate(-73,-230) scale(1,1)"><g><path fill="none" stroke="none"/><text fill="#000000" stroke="none" font-family="Arial" font-size="13px" font-style="normal" font-weight="normal" text-decoration="none" x="1099" y="668.5">+getSafety(): Danger</text></g></g><g transform="translate(-73,-230) scale(1,1)"><path fill="none" stroke="#000000" d="M 1229 879 L 1229 674" stroke-miterlimit="10"/></g><g transform="translate(-73,-230) scale(1,1)"><path fill="#FFFFFF" stroke="none" d="M 1233.2095177560159 684.1626748576241 L 1229 674 L 1224.7904822439841 684.1626748576241 L 1229 696"/></g><g transform="translate(-73,-230) scale(1,1)"><path fill="none" stroke="#000000" d="M 1233.2095177560159 684.1626748576241 L 1229 674 L 1224.7904822439841 684.1626748576241 L 1229 696 L 1233.2095177560159 684.1626748576241" stroke-miterlimit="10"/></g><g transform="translate(-73,-230) scale(1,1)"><g><path fill="none" stroke="none"/><text fill="#000000" stroke="none" font-family="Arial" font-size="13px" font-style="normal" font-weight="normal" text-decoration="none" x="1129.680908203125" y="795.5">#composed of</text></g></g><g transform="translate(-73,-230) scale(1,1)"><g><path fill="none" stroke="none"/><text fill="#000000" stroke="none" font-family="Arial" font-size="13px" font-style="normal" font-weight="normal" text-decoration="none" x="1246.726806640625" y="863.5">*</text></g></g><g transform="translate(-73,-230) scale(1,1)"><g><path fill="none" stroke="none"/><text fill="#000000" stroke="none" font-family="Arial" font-size="13px" font-style="normal" font-weight="normal" text-decoration="none" x="1239.5" y="700.5">1..*</text></g></g><g transform="translate(-73,-230) scale(1,1)"><path fill="none" stroke="#000000" d="M 720 699 L 1034 879" stroke-miterlimit="10"/></g><g transform="translate(-73,-230) scale(1,1)"><path fill="none" stroke="#000000" d="M 1023.0897334248153 877.5978290908706 L 1034 879 L 1027.276761078362 870.2937919619061" stroke-miterlimit="10"/></g><g transform="translate(-73,-230) scale(1,1)"><g><path fill="none" stroke="none"/><text fill="#000000" stroke="none" font-family="Arial" font-size="13px" font-style="normal" font-weight="normal" text-decoration="none" x="874.680908203125" y="783.5">#is following</text></g></g><g transform="translate(-73,-230) scale(1,1)"><g><path fill="none" stroke="none"/><text fill="#000000" stroke="none" font-family="Arial" font-size="13px" font-style="normal" font-weight="normal" text-decoration="none" x="770.220458984375" y="723.5">*</text></g></g><g transform="translate(-73,-230) scale(1,1)"><g><path fill="none" stroke="none"/><text fill="#000000" stroke="none" font-family="Arial" font-size="13px" font-style="normal" font-weight="normal" text-decoration="none" x="1046.5" y="867.5">1</text></g></g><g transform="translate(-73,-230) scale(1,1)"><rect fill="#C0C0C0" stroke="none" x="1187" y="263" width="98.2353515625" height="72" opacity="0.2"/></g><g transform="translate(-73,-230) scale(1,1)"><rect fill="#ffffff" stroke="none" x="1180" y="256" width="98.2353515625" height="72"/></g><g transform="translate(-73,-230) scale(1,1)"><path fill="none" stroke="#000000" d="M 1180 256 L 1278.2353515625 256 L 1278.2353515625 328 L 1180 328 L 1180 256 Z Z" stroke-miterlimit="10"/></g><g transform="translate(-73,-230) scale(1,1)"><path fill="none" stroke="#000000" d="M 1180 281 L 1278.2353515625 281" stroke-miterlimit="10"/></g><g transform="translate(-73,-230) scale(1,1)"><path fill="none" stroke="#000000" d="M 1180 319 L 1278.2353515625 319" stroke-miterlimit="10"/></g><g transform="translate(-73,-230) scale(1,1)"><g><path fill="none" stroke="none"/><text fill="#000000" stroke="none" font-family="Arial" font-size="13px" font-style="normal" font-weight="bold" text-decoration="none" x="1209.97314453125" y="275.5">Switch</text></g></g><g transform="translate(-73,-230) scale(1,1)"><g><path fill="none" stroke="none"/><text fill="#000000" stroke="none" font-family="Arial" font-size="13px" font-style="normal" font-weight="normal" text-decoration="none" x="1185" y="298.5">+angle: int</text></g></g><g transform="translate(-73,-230) scale(1,1)"><g><path fill="none" stroke="none"/><text fill="#000000" stroke="none" font-family="Arial" font-size="13px" font-style="normal" font-weight="normal" text-decoration="none" x="1185" y="313.5">+number: int</text></g></g><g transform="translate(-73,-230) scale(1,1)"><path fill="none" stroke="#000000" d="M 1229 527 L 1229 329" stroke-miterlimit="10"/></g><g transform="translate(-73,-230) scale(1,1)"><path fill="#FFFFFF" stroke="none" d="M 1233.2095177560159 339.16267485762415 L 1229 329 L 1224.7904822439841 339.16267485762415 L 1229 351"/></g><g transform="translate(-73,-230) scale(1,1)"><path fill="none" stroke="#000000" d="M 1233.2095177560159 339.16267485762415 L 1229 329 L 1224.7904822439841 339.16267485762415 L 1229 351 L 1233.2095177560159 339.16267485762415" stroke-miterlimit="10"/></g><g transform="translate(-73,-230) scale(1,1)"><g><path fill="none" stroke="none"/><text fill="#000000" stroke="none" font-family="Arial" font-size="13px" font-style="normal" font-weight="normal" text-decoration="none" x="1129.575439453125" y="444.5">-composed of</text></g></g><g transform="translate(-73,-230) scale(1,1)"><g><path fill="none" stroke="none"/><text fill="#000000" stroke="none" font-family="Arial" font-size="13px" font-style="normal" font-weight="normal" text-decoration="none" x="1237.5" y="511.5">1</text></g></g><g transform="translate(-73,-230) scale(1,1)"><g><path fill="none" stroke="none"/><text fill="#000000" stroke="none" font-family="Arial" font-size="13px" font-style="normal" font-weight="normal" text-decoration="none" x="1238.726806640625" y="356.5">*</text></g></g><g transform="translate(-73,-230) scale(1,1)"><rect fill="#ffffff" stroke="none" x="360" y="880" width="103.91650390625" height="62"/></g><g transform="translate(-73,-230) scale(1,1)"><path fill="none" stroke="#000000" d="M 360 880 L 463.91650390625 880 L 463.91650390625 942 L 360 942 L 360 880 Z Z" stroke-miterlimit="10"/></g><g transform="translate(-73,-230) scale(1,1)"><path fill="none" stroke="#000000" d="M 360 905 L 463.91650390625 905" stroke-miterlimit="10"/></g><g transform="translate(-73,-230) scale(1,1)"><g><path fill="none" stroke="none"/><text fill="#000000" stroke="none" font-family="Roboto" font-size="13px" font-style="normal" font-weight="bold" text-decoration="none" x="388.31640625" y="899.5">Request</text></g></g><g transform="translate(-73,-230) scale(1,1)"><g><path fill="none" stroke="none"/><text fill="#000000" stroke="none" font-family="Roboto" font-size="13px" font-style="normal" font-weight="normal" text-decoration="none" x="365" y="922.5">id: LocoId</text></g></g><g transform="translate(-73,-230) scale(1,1)"><g><path fill="none" stroke="none"/><text fill="#000000" stroke="none" font-family="Roboto" font-size="13px" font-style="normal" font-weight="normal" text-decoration="none" x="365" y="937.5">entry: EntryPoint</text></g></g><g transform="translate(-73,-230) scale(1,1)"><path fill="none" stroke="#000000" d="M 472 1103 L 421 943" stroke-miterlimit="10"/></g><g transform="translate(-73,-230) scale(1,1)"><path fill="none" stroke="#000000" d="M 428.0970545714151 951.4042736991579 L 421 943 L 420.0756564902763 953.9610943375209" stroke-miterlimit="10"/></g><g transform="translate(-73,-230) scale(1,1)"><g><path fill="none" stroke="none"/><text fill="#000000" stroke="none" font-family="Roboto" font-size="13px" font-style="normal" font-weight="normal" text-decoration="none" x="368.5" y="1033.5">#contains</text></g></g><g transform="translate(-73,-230) scale(1,1)"><g><path fill="none" stroke="none"/><text fill="#000000" stroke="none" font-family="Roboto" font-size="13px" font-style="normal" font-weight="normal" text-decoration="none" x="473.5" y="1084.5">1</text></g></g><g transform="translate(-73,-230) scale(1,1)"><g><path fill="none" stroke="none"/><text fill="#000000" stroke="none" font-family="Roboto" font-size="13px" font-style="normal" font-weight="normal" text-decoration="none" x="436.5712890625" y="965.5">*</text></g></g><g transform="translate(-73,-230) scale(1,1)"><rect fill="#ffffff" stroke="none" x="1360" y="240" width="93.90625" height="105"/></g><g transform="translate(-73,-230) scale(1,1)"><path fill="none" stroke="#000000" d="M 1360 240 L 1453.90625 240 L 1453.90625 345 L 1360 345 L 1360 240 Z Z" stroke-miterlimit="10"/></g><g transform="translate(-73,-230) scale(1,1)"><path fill="none" stroke="#000000" d="M 1360 278 L 1453.90625 278" stroke-miterlimit="10"/></g><g transform="translate(-73,-230) scale(1,1)"><g><path fill="none" stroke="none"/><text fill="#000000" stroke="none" font-family="Roboto" font-size="13px" font-style="normal" font-weight="normal" text-decoration="none" x="1364.5" y="257.5">«enumeration»</text></g></g><g transform="translate(-73,-230) scale(1,1)"><g><path fill="none" stroke="none"/><text fill="#000000" stroke="none" font-family="Roboto" font-size="13px" font-style="normal" font-weight="bold" text-decoration="none" x="1386.27880859375" y="272.5">Danger</text></g></g><g transform="translate(-73,-230) scale(1,1)"><g><path fill="none" stroke="none"/><text fill="#000000" stroke="none" font-family="Roboto" font-size="13px" font-style="normal" font-weight="normal" text-decoration="none" x="1365" y="295.5">clear</text></g></g><g transform="translate(-73,-230) scale(1,1)"><g><path fill="none" stroke="none"/><text fill="#000000" stroke="none" font-family="Roboto" font-size="13px" font-style="normal" font-weight="normal" text-decoration="none" x="1365" y="310.5">requestEA</text></g></g><g transform="translate(-73,-230) scale(1,1)"><g><path fill="none" stroke="none"/><text fill="#000000" stroke="none" font-family="Roboto" font-size="13px" font-style="normal" font-weight="normal" text-decoration="none" x="1365" y="325.5">requestEB</text></g></g><g transform="translate(-73,-230) scale(1,1)"><g><path fill="none" stroke="none"/><text fill="#000000" stroke="none" font-family="Roboto" font-size="13px" font-style="normal" font-weight="normal" text-decoration="none" x="1365" y="340.5">shared</text></g></g><g transform="translate(-73,-230) scale(1,1)"><path fill="none" stroke="#000000" d="M 1271 527 L 1375 346" stroke-miterlimit="10"/></g><g transform="translate(-73,-230) scale(1,1)"><path fill="none" stroke="#000000" d="M 1373.5868551352464 356.9088506081631 L 1375 346 L 1366.2870334433508 352.7144779233169" stroke-miterlimit="10"/></g><g transform="translate(-73,-230) scale(1,1)"><g><path fill="none" stroke="none"/><text fill="#000000" stroke="none" font-family="Roboto" font-size="13px" font-style="normal" font-weight="normal" text-decoration="none" x="1343.5" y="433.5">#has</text></g></g><g transform="translate(-73,-230) scale(1,1)"><g><path fill="none" stroke="none"/><text fill="#000000" stroke="none" font-family="Roboto" font-size="13px" font-style="normal" font-weight="normal" text-decoration="none" x="1288.95068359375" y="520.5">*</text></g></g><g transform="translate(-73,-230) scale(1,1)"><g><path fill="none" stroke="none"/><text fill="#000000" stroke="none" font-family="Roboto" font-size="13px" font-style="normal" font-weight="normal" text-decoration="none" x="1371.5" y="376.5">1</text></g></g></g></svg>